<svg t="1719468173500" class="icon" viewBox="0 0 1024 1024" version="1.1" xmlns="http://www.w3.org/2000/svg" p-id="8749" width="256" height="256">
    <path d="M298.667 768h298.666V640a85.333 85.333 0 0 1 85.334-85.333h128V256a85.333 85.333 0 0 1-85.334-85.333H426.667v128A85.333 85.333 0 0 1 341.333 384h-256A85.333 85.333 0 0 1 0 298.667V128a85.333 85.333 0 0 1 85.333-85.333h256A85.333 85.333 0 0 1 426.667 128h310.101a85.333 85.333 0 1 1 116.565 116.565v310.102h85.334A85.333 85.333 0 0 1 1024 640v170.667A85.333 85.333 0 0 1 938.667 896h-256a85.333 85.333 0 0 1-85.334-85.333H287.232A85.333 85.333 0 1 1 170.667 694.1V469.333h-64a21.333 21.333 0 1 1 0-42.666H320a21.333 21.333 0 1 1 0 42.666H213.333v213.334A85.333 85.333 0 0 1 298.667 768zM85.333 85.333A42.667 42.667 0 0 0 42.667 128v170.667a42.667 42.667 0 0 0 42.666 42.666h256A42.667 42.667 0 0 0 384 298.667V128a42.667 42.667 0 0 0-42.667-42.667h-256z m597.334 512A42.667 42.667 0 0 0 640 640v170.667a42.667 42.667 0 0 0 42.667 42.666h256a42.667 42.667 0 0 0 42.666-42.666V640a42.667 42.667 0 0 0-42.666-42.667h-256zM704 938.667h213.333a21.333 21.333 0 1 1 0 42.666H704a21.333 21.333 0 1 1 0-42.666z m106.667-725.334a42.667 42.667 0 1 0 0-85.333 42.667 42.667 0 0 0 0 85.333zM213.333 810.667a42.667 42.667 0 1 0 0-85.334 42.667 42.667 0 0 0 0 85.334z" fill="currentColor" p-id="8750"></path>
</svg>
